<svg viewBox="0 0 32 32" xmlns="http://www.w3.org/2000/svg" xmlns:xlink="http://www.w3.org/1999/xlink"><path fill="currentColor" d="M15.6 1.714c2.857 0 5.486.4 7.657.857S27.086 3.6 28.114 4c-.057 1.314-.057 3.486.229 6.229s.8 6 1.829 9.371c-.229.457-.686 1.143-1.429 2-.743.914-1.771 2-3.257 3.257-1.657 1.486-3.657 2.629-5.429 3.543S16.743 29.886 16 30.171c-.743-.286-2.286-.857-4-1.771s-3.714-2.057-5.371-3.543A34.57 34.57 0 013.372 21.6c-.743-.914-1.2-1.6-1.486-2.057 1.029-3.143 1.6-6.4 1.829-9.143s.286-5.086.229-6.4c1.771-.743 3.657-1.314 5.6-1.714s4-.571 6.057-.571zM15.6 0c-2.057 0-4.229.171-6.514.629s-4.571 1.2-6.914 2.286c0 0 .171 2.171 0 5.371S1.429 15.715.001 19.772c0 0 .286.629 1.086 1.771s2.171 2.743 4.343 4.629 4.8 3.371 6.914 4.343c2.057.971 3.6 1.486 3.6 1.486s1.543-.514 3.657-1.486c2.114-.971 4.743-2.457 6.971-4.343s3.543-3.543 4.343-4.629c.8-1.143 1.086-1.771 1.086-1.771-1.429-4.457-2-8.629-2.114-11.771-.171-3.143 0-5.143 0-5.143s-1.543-.686-4.057-1.429S19.659 0 15.601 0z"></path><path fill="currentColor" d="M26.4 6.571l-8.914 8.857-8.914 8.914c1.314 1.029 2.8 1.886 4.114 2.514s2.514 1.2 3.257 1.486c.857-.343 2.286-.914 3.771-1.714s3.2-1.829 4.571-3.029c1.086-.914 1.886-1.771 2.571-2.514s1.086-1.314 1.371-1.771c-.743-2.514-1.2-4.971-1.486-7.143s-.343-4.057-.343-5.6zM25.543 4.914c-1.143-.343-2.629-.743-4.286-1.029s-3.6-.457-5.657-.457c-1.771 0-3.429.171-5.086.457s-3.257.686-4.8 1.257c0 1.543-.057 3.657-.343 6.114s-.8 5.314-1.657 8.114c.286.4.686.971 1.314 1.6s1.314 1.429 2.229 2.229L25.543 4.913z"></path></svg>